<?xml version="1.0" encoding="utf-8"?>
<svg xmlns="http://www.w3.org/2000/svg" width="1000" height="300" viewBox="0 0 1000 300" role="img" aria-label="LM Studio Benchmark logo" xmlns:bx="https://boxy-svg.com">
  <defs>
    <linearGradient id="bgGrad" x1="0" x2="1">
      <stop offset="0" stop-color="#071126"/>
      <stop offset="1" stop-color="#0f2a4d"/>
    </linearGradient>
    <linearGradient id="chipGrad" x1="0" x2="1">
      <stop offset="0" stop-color="#2dd4bf"/>
      <stop offset="1" stop-color="#7c3aed"/>
    </linearGradient>
    <linearGradient id="barGrad" x1="0" x2="0" y1="0" y2="1">
      <stop offset="0" stop-color="#60a5fa"/>
      <stop offset="1" stop-color="#6366f1"/>
    </linearGradient>
    <filter id="softShadow" x="-50%" y="-50%" width="200%" height="200%">
      <feDropShadow dx="0" dy="6" stdDeviation="8" flood-color="#000" flood-opacity="0.35"/>
    </filter>
  </defs>
  <rect width="1001.69" height="301.828" fill="url(#bgGrad)" style="" x="-0.376" y="-1.501"/>
  <g opacity="0.06" transform="matrix(1, 0, 0, 1, -449.867798, 106.461433)"/>
  <g transform="translate(60,45)" filter="url(#softShadow)">
    <rect x="0" y="0" width="300" height="210" rx="20" fill="#0b1220" stroke="#0b2540" stroke-width="2"/>
    <g fill="#0b2540">
      <rect x="-10" y="14" width="10" height="6" rx="1"/>
      <rect x="-10" y="38" width="10" height="6" rx="1"/>
      <rect x="-10" y="62" width="10" height="6" rx="1"/>
      <rect x="300" y="14" width="10" height="6" rx="1"/>
      <path d="M 301 38 H 309 L 310 38 V 44 L 309 44 H 301 L 300 44 V 38 L 301 38 Z" bx:shape="rect 300 38 10 6 1 1 0 2@8e7fea7d"/>
      <rect x="300" y="62" width="10" height="6" rx="1"/>
    </g>
    <rect x="20" y="16" width="260" height="178" rx="14" fill="url(#chipGrad)"/>
    <g fill="#fff" opacity="0.95" transform="matrix(1, 0, 0, 1, -248.124588, -517.464294)">
      <text x="408.741" y="612.219" dominant-baseline="middle" text-anchor="middle" font-family="DejaVu Sans, Arial, sans-serif" font-size="56" font-weight="700" style="white-space: pre; font-size: 56px;">LM</text>
      <text x="400" y="684.36" dominant-baseline="middle" text-anchor="middle" font-family="DejaVu Sans, Arial, sans-serif" font-size="14" opacity="0.95" style="white-space: pre; font-size: 14px;">MODEL BENCHMARK</text>
    </g>
  </g>
  <g transform="matrix(1, 0, 0, 1, 380.618408, 31.987364)" style="">
    <g stroke="#062033" stroke-width="1">
      <line x1="0" y1="0" x2="520" y2="0" opacity="0.08"/>
      <line x1="0" y1="40" x2="520" y2="40" opacity="0.06"/>
      <line x1="0" y1="80" x2="520" y2="80" opacity="0.06"/>
      <line x1="0" y1="120" x2="520" y2="120" opacity="0.06"/>
      <line x1="0" y1="160" x2="520" y2="160" opacity="0.06"/>
      <line x1="0" y1="200" x2="520" y2="200" opacity="0.06"/>
    </g>
    <g transform="translate(40,20)">
      <rect x="0" y="100" width="60" height="100" rx="8" fill="url(#barGrad)" opacity="0.95"/>
      <rect x="89.727" y="60" width="60" height="140" rx="8" fill="url(#barGrad)" opacity="0.95"/>
      <rect x="180" y="40" width="60" height="160" rx="8" fill="url(#barGrad)" opacity="0.95"/>
      <rect x="270" y="20" width="60" height="180" rx="8" fill="url(#barGrad)" opacity="0.95"/>
      <path d="M30 100 C 80 60, 140 50, 200 40 C 260 30, 320 24, 350 20" fill="none" stroke="#34d399" stroke-width="4" stroke-linecap="round" stroke-linejoin="round" opacity="0.95"/>
      <circle cx="30" cy="100" r="6" fill="#10b981" stroke="#05222a" stroke-width="1"/>
      <circle cx="118.908" cy="56.351" r="6" fill="#10b981" stroke="#05222a" stroke-width="1"/>
      <circle cx="209.454" cy="38.808" r="6" fill="#10b981" stroke="#05222a" stroke-width="1"/>
      <circle cx="299.727" cy="26.997" r="6" fill="#10b981" stroke="#05222a" stroke-width="1"/>
    </g>
    <g transform="translate(40,230)" fill="#bfe9ff" font-family="DejaVu Sans, Arial, sans-serif" font-size="12">
      <text x="0" y="0" style="white-space: pre;">3B</text>
      <text x="90" y="0" style="white-space: pre;">7B</text>
      <text x="180" y="0" style="white-space: pre;">13B</text>
      <text x="270" y="0" style="white-space: pre;">30B+</text>
    </g>
  </g>
  <g transform="matrix(1, 0, 0, 1, 60, 270)" fill="#9fd5ff" font-family="DejaVu Sans, Arial, sans-serif" font-size="12">
    <text x="0" y="0" style="white-space: pre;">LM Studio Model Benchmark </text>
  </g>
</svg>